<svg width="150" height="36" viewBox="0 0 150 36" fill="none" xmlns="http://www.w3.org/2000/svg">
<path d="M9.44857 19.747C10.2457 19.747 10.9173 19.4705 11.4635 18.9176C12.0099 18.365 12.2831 17.6854 12.2831 16.8788C12.2831 16.0722 12.0099 15.3926 11.4635 14.84C10.9173 14.2871 10.2457 14.0106 9.44857 14.0106C8.65142 14.0106 7.97979 14.2871 7.43366 14.84C6.88722 15.3926 6.614 16.0722 6.614 16.8788C6.614 17.6854 6.88722 18.365 7.43366 18.9176C7.97979 19.4705 8.65142 19.747 9.44857 19.747ZM20.7868 19.747C21.584 19.747 22.2556 19.4705 22.8018 18.9176C23.3482 18.365 23.6214 17.6854 23.6214 16.8788C23.6214 16.0722 23.3482 15.3926 22.8018 14.84C22.2556 14.2871 21.584 14.0106 20.7868 14.0106C19.9897 14.0106 19.3181 14.2871 18.7719 14.84C18.2255 15.3926 17.9523 16.0722 17.9523 16.8788C17.9523 17.6854 18.2255 18.365 18.7719 18.9176C19.3181 19.4705 19.9897 19.747 20.7868 19.747ZM8.50371 36V30.4845C8.50371 30.1413 8.61269 29.8592 8.83063 29.6384C9.04889 29.4178 9.32763 29.3076 9.66683 29.3076H16.0626V36H8.50371ZM16.0626 36V29.3076H20.5686C20.9078 29.3076 21.1865 29.4178 21.4048 29.6384C21.6227 29.8592 21.7317 30.1413 21.7317 30.4845V36H16.0626ZM3.05283 36C2.21317 36 1.49445 35.6976 0.896669 35.0927C0.29889 34.4878 0 33.7606 0 32.911V14.9667H30.2354V32.911C30.2354 33.7606 29.9365 34.4878 29.3388 35.0927C28.741 35.6976 28.0223 36 27.1826 36H23.6214V30.4845C23.6214 29.6349 23.3225 28.9076 22.7248 28.3028C22.127 27.6979 21.4083 27.3955 20.5686 27.3955H9.66683C8.82717 27.3955 8.10845 27.6979 7.51067 28.3028C6.91289 28.9076 6.614 29.6349 6.614 30.4845V36H3.05283Z" fill="#FFC400"/>
<path d="M0 9.16225V8.158C0 5.59557 1.16882 3.59523 3.50647 2.15698C5.84412 0.718992 9.71453 0 15.1177 0C20.5209 0 24.3913 0.718992 26.729 2.15698C29.0666 3.59523 30.2354 5.59557 30.2354 8.158V9.16225H0Z" fill="#FFC400"/>
<path d="M15.1177 11.72C16.104 11.72 16.8642 11.491 17.3984 11.0329C17.9323 10.5748 18.8539 10.3457 20.1633 10.3457C21.4726 10.3457 22.3912 10.5748 22.9189 11.0329C23.4466 11.491 24.2036 11.72 25.1899 11.72C26.1762 11.72 26.9363 11.491 27.4701 11.0329C28.0043 10.5748 28.9261 10.3457 30.2354 10.3457L30.2354 11.72C29.2491 11.72 28.4889 11.9491 27.9548 12.4072C27.4209 12.8653 26.4993 13.0944 25.1899 13.0944C23.8805 13.0944 22.962 12.8653 22.4343 12.4072C21.9065 11.9491 21.1495 11.72 20.1633 11.72C19.177 11.72 18.4169 11.9491 17.883 12.4072C17.3488 12.8653 16.4271 13.0944 15.1177 13.0944C13.8084 13.0944 12.8866 12.8653 12.3524 12.4072C11.8186 11.9491 11.0585 11.72 10.0722 11.72C9.08589 11.72 8.33966 11.9491 7.8335 12.4072C7.32734 12.8653 6.41957 13.0944 5.11021 13.0944C3.80085 13.0944 2.86201 12.8653 2.2937 12.4072C1.72511 11.9491 0.960543 11.72 7.74954e-06 11.72L7.86969e-06 10.3457C1.30937 10.3457 2.21391 10.5748 2.71364 11.0329C3.21308 11.491 3.95595 11.72 4.94224 11.72C5.92853 11.72 6.70275 11.491 7.26491 11.0329C7.82706 10.5748 8.76282 10.3457 10.0722 10.3457C11.3815 10.3457 12.3032 10.5748 12.837 11.0329C13.3712 11.491 14.1314 11.72 15.1177 11.72Z" fill="#FFC400"/>
<path d="M39.728 27V11.4H43.856V17.208H48.512V11.4H52.64V27H48.512V20.808H43.856V27H39.728ZM62.4714 27.288C61.3834 27.288 60.4314 27.136 59.6154 26.832C58.7994 26.528 58.1194 26.064 57.5754 25.44C57.0474 24.816 56.6474 24.032 56.3754 23.088C56.1194 22.128 55.9914 21 55.9914 19.704V11.4H60.1194V20.184C60.1194 21.048 60.1994 21.744 60.3594 22.272C60.5354 22.784 60.7914 23.16 61.1274 23.4C61.4794 23.624 61.9274 23.736 62.4714 23.736C63.0154 23.736 63.4634 23.624 63.8154 23.4C64.1674 23.16 64.4314 22.784 64.6074 22.272C64.7834 21.744 64.8714 21.048 64.8714 20.184V11.4H68.8554V19.704C68.8554 21 68.7274 22.128 68.4714 23.088C68.2154 24.032 67.8234 24.816 67.2954 25.44C66.7834 26.064 66.1194 26.528 65.3034 26.832C64.5034 27.136 63.5594 27.288 62.4714 27.288ZM72.2124 27V11.4H76.4364L79.8924 18.36C80.1644 18.888 80.4204 19.456 80.6604 20.064C80.9004 20.656 81.1404 21.256 81.3804 21.864H81.4764C81.3804 21.016 81.2684 20.056 81.1404 18.984C81.0124 17.896 80.9484 16.872 80.9484 15.912V11.4H84.8844V27H80.6604L77.2044 20.04C76.9484 19.512 76.6924 18.944 76.4364 18.336C76.1964 17.728 75.9564 17.128 75.7164 16.536H75.6204C75.7164 17.416 75.8284 18.392 75.9564 19.464C76.0844 20.52 76.1484 21.528 76.1484 22.488V27H72.2124ZM95.5374 27.288C94.0814 27.288 92.7534 27 91.5534 26.424C90.3694 25.832 89.4254 24.944 88.7214 23.76C88.0174 22.576 87.6654 21.096 87.6654 19.32C87.6654 18.008 87.8734 16.848 88.2894 15.84C88.7054 14.816 89.2734 13.952 89.9934 13.248C90.7134 12.544 91.5374 12.016 92.4654 11.664C93.4094 11.296 94.4014 11.112 95.4414 11.112C96.5934 11.112 97.5934 11.312 98.4414 11.712C99.2894 12.112 99.9854 12.6 100.529 13.176L98.3694 15.672C97.9854 15.336 97.5774 15.088 97.1454 14.928C96.7294 14.752 96.2094 14.664 95.5854 14.664C94.8814 14.664 94.2494 14.848 93.6894 15.216C93.1294 15.568 92.6894 16.08 92.3694 16.752C92.0494 17.424 91.8894 18.232 91.8894 19.176C91.8894 20.152 92.0334 20.984 92.3214 21.672C92.6254 22.344 93.0734 22.856 93.6654 23.208C94.2734 23.56 95.0414 23.736 95.9694 23.736C96.1934 23.736 96.4094 23.712 96.6174 23.664C96.8414 23.616 97.0254 23.544 97.1694 23.448V21.288H94.8654V17.928H100.817V25.368C100.273 25.896 99.5294 26.352 98.5854 26.736C97.6574 27.104 96.6414 27.288 95.5374 27.288ZM110.429 27.288C108.989 27.288 107.725 26.968 106.637 26.328C105.549 25.672 104.701 24.736 104.093 23.52C103.485 22.304 103.181 20.84 103.181 19.128C103.181 17.416 103.485 15.968 104.093 14.784C104.701 13.584 105.549 12.672 106.637 12.048C107.725 11.424 108.989 11.112 110.429 11.112C111.869 11.112 113.133 11.424 114.221 12.048C115.309 12.672 116.157 13.584 116.765 14.784C117.373 15.968 117.677 17.416 117.677 19.128C117.677 20.84 117.373 22.304 116.765 23.52C116.157 24.736 115.309 25.672 114.221 26.328C113.133 26.968 111.869 27.288 110.429 27.288ZM110.429 23.736C111.053 23.736 111.589 23.552 112.037 23.184C112.501 22.8 112.853 22.264 113.093 21.576C113.333 20.888 113.453 20.072 113.453 19.128C113.453 18.184 113.333 17.384 113.093 16.728C112.853 16.056 112.501 15.544 112.037 15.192C111.589 14.84 111.053 14.664 110.429 14.664C109.805 14.664 109.261 14.84 108.797 15.192C108.349 15.544 108.005 16.056 107.765 16.728C107.525 17.384 107.405 18.184 107.405 19.128C107.405 20.072 107.525 20.888 107.765 21.576C108.005 22.264 108.349 22.8 108.797 23.184C109.261 23.552 109.805 23.736 110.429 23.736ZM126.854 27.288C125.766 27.288 124.814 27.136 123.998 26.832C123.182 26.528 122.502 26.064 121.958 25.44C121.43 24.816 121.03 24.032 120.758 23.088C120.502 22.128 120.374 21 120.374 19.704V11.4H124.502V20.184C124.502 21.048 124.582 21.744 124.742 22.272C124.918 22.784 125.174 23.16 125.51 23.4C125.862 23.624 126.31 23.736 126.854 23.736C127.398 23.736 127.846 23.624 128.198 23.4C128.55 23.16 128.814 22.784 128.99 22.272C129.166 21.744 129.254 21.048 129.254 20.184V11.4H133.238V19.704C133.238 21 133.11 22.128 132.854 23.088C132.598 24.032 132.206 24.816 131.678 25.44C131.166 26.064 130.502 26.528 129.686 26.832C128.886 27.136 127.942 27.288 126.854 27.288ZM136.595 27V11.4H142.499C143.619 11.4 144.651 11.552 145.595 11.856C146.539 12.144 147.299 12.656 147.875 13.392C148.451 14.128 148.739 15.144 148.739 16.44C148.739 17.688 148.451 18.704 147.875 19.488C147.299 20.272 146.539 20.848 145.595 21.216C144.651 21.584 143.619 21.768 142.499 21.768H140.723V27H136.595ZM140.723 18.504H142.211C143.027 18.504 143.643 18.328 144.059 17.976C144.491 17.624 144.707 17.112 144.707 16.44C144.707 15.768 144.491 15.304 144.059 15.048C143.643 14.792 143.027 14.664 142.211 14.664H140.723V18.504ZM144.995 27L141.755 20.688L144.539 17.952L149.603 27H144.995Z" fill="#FFC400"/>
</svg>
